<svg xmlns="http://www.w3.org/2000/svg" viewBox="0 0 600 900" role="img" aria-labelledby="title"><title id="title">Hopeful flying hero movie poster</title><defs><linearGradient id="sky" x2="0" y2="1"><stop stop-color="#142d6d"/><stop offset=".65" stop-color="#5aaae1"/><stop offset="1" stop-color="#f4bb64"/></linearGradient><linearGradient id="cape" x2="1" y2="1"><stop stop-color="#f2303d"/><stop offset="1" stop-color="#7f0f29"/></linearGradient></defs><rect width="600" height="900" fill="url(#sky)"/><g fill="#fff" opacity=".5"><path d="M45 260c65-37 121-37 180 0-70-14-127-8-180 0M328 180c72-40 132-34 205 9-74-17-137-15-205-9M69 490c60-25 103-24 155 3-59-8-111-7-155-3"/></g><path d="M286 123c26 5 42 29 38 55l-8 49 29 21-26 33-71-1-21-31 24-21-7-49c-4-29 14-53 42-56z" fill="#f3c59c"/><path d="m253 223 64 0 19 164-25 130-84-2-14-122z" fill="#244891"/><path d="m249 258 13 6 15 126-50 192-77 88 62-280z" fill="url(#cape)"/><path d="m317 263-13 6 7 121 83 211 67 45-109-256z" fill="url(#cape)"/><path d="M242 381h83l-42 54z" fill="#efc147"/><path d="M0 836c78-158 172-221 281-189 88 27 148 24 319-52v205H0z" fill="#143451" opacity=".8"/><text x="48" y="788" fill="#fff" font-family="Arial,sans-serif" font-size="42" font-weight="700" letter-spacing="9">HOPE</text><text x="51" y="828" fill="#f5ce64" font-family="Arial,sans-serif" font-size="16" letter-spacing="5">RISE INTO THE LIGHT</text></svg>
